<?xml version="1.0" encoding="UTF-8" standalone="no"?>
<!-- Created with Inkscape (http://www.inkscape.org/) -->

<svg
   width="153.9917mm"
   height="139.84869mm"
   viewBox="0 0 153.9917 139.84869"
   version="1.1"
   id="svg1"
   xmlns="http://www.w3.org/2000/svg"
   xmlns:svg="http://www.w3.org/2000/svg">
  <defs
     id="defs1" />
  <g
     id="layer1"
     transform="translate(-31.708993,-77.2073)">
    <path
       d="m 71.324128,179.86634 c -7.589825,-0.15945 -15.050134,4.59529 -18.485997,11.26761 7.413799,0.0469 16.096997,3.27933 22.525473,-1.80879 2.815391,-3.30693 7.529977,-9.37437 -0.362066,-8.72739 -1.189642,-0.39259 -2.426688,-0.64894 -3.67741,-0.73143 z"
       style="baseline-shift:baseline;display:inline;overflow:visible;vector-effect:none;stroke-width:2.35874;enable-background:accumulate;stop-color:#000000"
       id="path215" />
    <path
       d="m 71.324128,179.86634 c 3.778925,0.8946 12.246471,0.76784 6.323746,6.17624 -3.777102,8.55133 -14.262652,5.64216 -21.561229,5.45615 -7.317238,-0.0389 3.284201,-8.49338 6.575113,-9.66862 2.674466,-1.32129 5.655844,-2.17921 8.66237,-1.96377 z"
       style="baseline-shift:baseline;display:inline;overflow:visible;vector-effect:none;stroke-width:2.35874;enable-background:accumulate;stop-color:#000000"
       id="path214" />
    <path
       d="m 146.27735,179.83344 c -3.80015,0.75602 -13.02505,0.80077 -7.07705,6.19085 3.30209,7.87523 13.13849,6.09637 19.93181,5.44319 10.54439,1.71605 -1.13203,-8.4075 -5.26588,-9.68943 -2.36909,-1.12842 -4.94079,-1.95555 -7.58888,-1.94461 z"
       style="baseline-shift:baseline;display:inline;overflow:visible;vector-effect:none;stroke-width:2.35874;enable-background:accumulate;stop-color:#000000"
       id="path213" />
    <path
       d="m 146.27735,179.83344 c 7.36744,0.34617 14.1657,4.95764 17.93731,11.17453 -6.85189,0.23819 -14.71027,2.78546 -21.21432,-0.61702 -3.35176,-2.41207 -9.77238,-10.39395 -1.27171,-9.73717 1.46232,-0.51366 2.99243,-0.84454 4.54872,-0.82034 z"
       style="baseline-shift:baseline;display:inline;overflow:visible;vector-effect:none;stroke-width:2.35874;enable-background:accumulate;stop-color:#000000"
       id="path212" />
    <path
       d="m 52.840584,164.76284 c -7.65545,-0.66674 -15.022801,2.86469 -21.031439,7.20155 3.397232,6.54259 10.822821,10.88184 18.052217,11.67237 7.194421,-0.0991 11.916689,-6.7975 18.203325,-9.54316 6.370811,-3.91135 -6.472672,-6.44605 -9.500278,-8.64085 -1.865857,-0.48562 -3.80598,-0.60148 -5.723825,-0.68991 z"
       style="baseline-shift:baseline;display:inline;overflow:visible;vector-effect:none;stroke-width:2.35874;enable-background:accumulate;stop-color:#000000"
       id="path208" />
    <path
       d="m 166.60758,150.05059 c -9.69502,-0.18564 -18.51004,4.97733 -25.01821,11.85068 -4.05023,0.96308 -9.46544,5.95744 -15.00222,6.81956 -9.91178,3.26465 -17.40912,11.01026 -23.04281,19.49244 -6.828344,6.9499 -10.633796,17.67424 -20.691752,20.75477 -4.952836,2.89292 -12.059567,2.78418 -16.512144,4.89296 9.994669,4.68162 22.2466,4.06653 31.315055,-2.40459 5.434791,-4.09417 10.128401,-9.3876 13.551571,-15.166 -4.12645,6.28199 4.45782,10.94245 8.31642,14.82696 7.28177,5.32718 16.74533,7.45643 25.47401,4.78927 3.00131,-0.16959 9.55977,-3.24465 2.70507,-3.22201 -11.07185,-1.90211 -22.79644,-6.7828 -28.26592,-17.20197 -5.39797,-5.1578 -1.62796,-12.28087 3.579,-15.67231 3.05383,-3.53379 10.02811,-6.10278 15.65962,-6.10219 2.97736,-0.90613 11.42203,3.58374 7.87874,-1.24004 6.19114,3.21843 11.27207,8.49447 17.81072,10.92715 7.5413,1.12045 15.02773,-3.75569 19.88574,-9.1592 3.04772,-5.59469 -8.69659,-6.67242 -12.40862,-8.84469 -7.26887,-1.47046 -15.10645,-0.78766 -21.1009,3.92547 -3.72746,4.71849 -10.99255,1.70629 -11.28838,-3.41783 5.26554,-5.57843 14.12198,-0.58473 19.62791,-5.93896 2.92089,-2.59961 6.06536,-6.72714 7.5271,-9.90947 z"
       style="baseline-shift:baseline;display:inline;overflow:visible;vector-effect:none;stroke-width:2.35874;enable-background:accumulate;stop-color:#000000"
       id="path201" />
    <path
       d="m 32.130063,142.66277 c -1.44314,5.86245 0.882214,14.46119 6.07096,18.66663 4.137488,3.14657 15.887447,2.97139 16.932322,0.32633 -5.231061,-4.93388 -9.228051,-11.44654 -16.182716,-14.2887 -2.542587,-1.1696 -5.050286,-2.48221 -6.820566,-4.70426 z"
       style="baseline-shift:baseline;display:inline;overflow:visible;vector-effect:none;stroke-width:2.35874;enable-background:accumulate;stop-color:#000000"
       id="path198" />
    <path
       d="m 185.096,142.58234 c -4.23006,4.67447 -11.26376,5.58716 -15.46061,10.55166 -2.5706,3.63905 -13.90996,11.53938 -3.49437,10.01865 7.00063,1.65131 15.33128,-1.31384 17.60914,-8.64021 1.13485,-3.31244 2.88438,-9.16887 1.34584,-11.9301 z"
       style="baseline-shift:baseline;display:inline;overflow:visible;vector-effect:none;stroke-width:2.35874;enable-background:accumulate;stop-color:#000000"
       id="path197" />
    <path
       d="m 132.88884,142.40437 c -6.49135,0.42122 -11.81271,5.7818 -16.5979,8.58966 -2.54998,2.30883 -5.94347,9.76477 -7.86702,9.46613 -5.51191,-8.6191 -14.282755,-15.9597 -24.49126,-17.83525 3.662208,3.21352 8.811704,6.43123 11.693447,10.404 3.459162,4.92997 7.229833,11.55342 5.295523,17.45915 -2.862573,0.9217 -11.778082,-2.97977 -16.883093,-4.29177 -7.972259,-2.36312 -12.133403,-10.95035 -20.246237,-13.26661 -3.068738,-0.72977 -13.555199,-4.8372 -12.599835,-1.1908 3.573243,5.10312 7.582944,11.58231 14.700426,11.60016 4.041032,-0.37933 15.390712,0.52192 11.541565,6.17397 -3.19128,0.57963 -11.637677,6.96541 -3.650419,4.59161 10.257238,-1.93832 22.327028,2.6632 25.980872,13.07529 3.595071,3.33497 6.571651,-7.51415 10.484511,-9.325 8.28322,-3.72937 4.34524,-12.01408 7.73859,-18.66217 2.53424,-7.21898 11.66005,-11.98726 14.90053,-16.78816 z"
       style="baseline-shift:baseline;display:inline;overflow:visible;vector-effect:none;stroke-width:2.35874;enable-background:accumulate;stop-color:#000000"
       id="path196" />
    <path
       d="m 69.573782,140.32856 c -1.227366,7.00552 2.580951,16.38831 10.182483,18.21817 3.83101,-1.05396 15.561312,3.45399 9.178676,-3.52542 -2.610875,-6.22732 -8.073753,-10.59112 -14.65251,-11.93557 -2.14347,-0.11134 -3.112128,-2.02316 -4.708649,-2.75718 z"
       style="baseline-shift:baseline;display:inline;overflow:visible;vector-effect:none;stroke-width:2.35874;enable-background:accumulate;stop-color:#000000"
       id="path195" />
    <path
       d="m 147.34756,140.23714 c -4.63583,4.79153 -13.40179,3.62144 -16.50964,10.58393 -1.21227,3.44559 -8.67616,9.93093 -0.5993,7.81387 6.50992,1.50363 12.89244,-2.10444 15.88535,-7.38484 0.60529,-3.55337 2.19647,-7.42127 1.22359,-11.01296 z"
       style="baseline-shift:baseline;display:inline;overflow:visible;vector-effect:none;stroke-width:2.35874;enable-background:accumulate;stop-color:#000000"
       id="path194" />
    <path
       d="m 79.784581,120.6127 c -0.873963,2.85808 2.90992,13.57367 8.614139,15.16211 3.41898,0.0118 10.481979,3.8333 11.521039,2.79487 -1.814133,-6.25735 -5.04161,-12.66815 -11.488248,-15.27267 -2.751495,-1.29405 -5.636431,-2.229 -8.64693,-2.68431 z"
       style="baseline-shift:baseline;display:inline;overflow:visible;vector-effect:none;stroke-width:2.35874;enable-background:accumulate;stop-color:#000000"
       id="path189" />
    <path
       d="m 79.784581,120.6127 c 8.825442,1.10662 17.70871,6.94801 19.336668,16.18238 3.217381,5.64927 -8.233061,-1.93038 -11.48591,-1.34197 -4.923227,-1.82144 -8.857364,-12.41962 -7.850758,-14.84041 z"
       style="baseline-shift:baseline;display:inline;overflow:visible;vector-effect:none;fill:#000000;fill-opacity:1;stroke-width:2.35874;enable-background:accumulate;stop-color:#000000"
       id="path188" />
    <path
       d="m 137.82299,120.56637 c -8.78757,0.65785 -17.86013,6.28018 -19.67563,15.39969 -4.49146,7.07729 5.2643,-0.85974 8.69638,0.19766 7.59479,-1.08643 9.08304,-10.46806 10.97925,-15.59728 z"
       style="baseline-shift:baseline;display:inline;overflow:visible;vector-effect:none;stroke-width:2.35874;enable-background:accumulate;stop-color:#000000"
       id="path187" />
    <path
       d="m 137.82299,120.56637 c -1.63991,6.09167 -4.6603,16.34568 -13.57891,16.11998 -3.23921,-0.192 -10.20667,5.72087 -6.09686,-0.7202 1.87696,-9.22746 10.81218,-14.65104 19.67577,-15.39978 z"
       style="baseline-shift:baseline;display:inline;overflow:visible;vector-effect:none;stroke-width:2.35874;enable-background:accumulate;stop-color:#000000"
       id="path186" />
    <path
       d="m 39.182681,118.63318 c -4.456012,11.70963 3.951405,26.10851 16.104241,28.78091 3.733895,0.14105 13.799453,6.34377 10.423001,1.69779 -2.766275,-6.92041 -5.440387,-14.27881 -10.64996,-19.92716 -3.213942,-4.13227 -12.173716,-5.47821 -15.877305,-10.55152 z"
       style="baseline-shift:baseline;display:inline;overflow:visible;vector-effect:none;stroke-width:2.35874;enable-background:accumulate;stop-color:#000000"
       id="path185" />
    <path
       d="m 178.1921,118.59416 c -4.84489,5.38976 -13.23613,6.18147 -17.40116,12.56331 -3.70402,4.36619 -5.85549,10.33171 -7.97878,15.79397 -3.14566,4.54083 -2.01769,5.17427 2.39001,2.45443 7.69722,-2.48131 17.02078,-4.56358 20.76697,-12.63319 3.20203,-5.34792 4.55861,-12.26866 2.22296,-18.17852 z"
       style="baseline-shift:baseline;display:inline;overflow:visible;vector-effect:none;stroke-width:2.35874;enable-background:accumulate;stop-color:#000000"
       id="path184" />
    <path
       d="m 157.82167,107.49966 c -2.52293,4.75618 -7.69849,6.23883 -11.17189,10.08268 -6.17614,5.50998 -7.13987,14.05174 -9.32187,21.54414 -4.88581,5.48543 6.26126,-2.21379 8.62288,-1.66406 8.00033,-1.27969 15.1056,-8.10011 14.63359,-16.58354 -0.0351,-4.62508 -0.69988,-9.21595 -2.76271,-13.37922 z"
       style="baseline-shift:baseline;display:inline;overflow:visible;vector-effect:none;stroke-width:2.35874;enable-background:accumulate;stop-color:#000000"
       id="path178" />
    <path
       d="m 157.82167,107.49966 c 3.43049,7.77227 4.68987,18.43314 -1.88647,25.01691 -5.49187,5.29822 -13.91602,5.00659 -20.1945,8.93249 3.51265,-4.71842 3.09034,-11.76559 6.03352,-17.11461 2.48708,-4.97127 6.67397,-9.2903 11.26369,-11.59203 2.44934,-0.70042 2.93437,-4.19741 4.78376,-5.24276 z m -10.47411,32.73748 c 0.79815,6.0598 -0.73194,12.39478 -5.81619,16.15333 -4.33201,3.88788 -10.53661,1.67427 -15.63252,2.31017 3.94548,-5.76367 6.9669,-13.49258 14.75115,-14.86834 2.50208,-0.604 5.03604,-1.5454 6.69756,-3.59516 z m -77.773778,0.0915 c 4.215053,4.13833 11.735691,3.39365 15.446378,8.62573 1.471454,2.54677 6.737779,8.64802 5.310445,9.97476 -6.278034,-0.64601 -14.290801,1.18897 -17.880096,-5.71359 -2.292579,-3.6199 -3.849161,-8.77289 -2.876727,-12.8869 z"
       style="baseline-shift:baseline;display:inline;overflow:visible;vector-effect:none;stroke-width:2.35874;enable-background:accumulate;stop-color:#000000"
       id="path177" />
    <path
       d="m 59.288611,107.45211 c -2.992218,5.77923 -3.522745,13.54049 -1.685972,19.8889 2.725875,8.14219 11.869189,9.57064 18.920642,11.97427 2.536173,1.32398 6.496181,4.14337 3.44582,-0.60759 -2.359203,-7.31611 -3.447091,-15.6862 -9.5629,-21.11082 -3.81349,-3.51171 -8.987744,-4.94877 -11.11759,-10.14476 z"
       style="baseline-shift:baseline;display:inline;overflow:visible;vector-effect:none;stroke-width:2.35874;enable-background:accumulate;stop-color:#000000"
       id="path176" />
    <path
       d="m 96.06436,95.66037 c -6.932278,5.46182 -9.881084,16.16491 -4.498373,23.74277 4.648105,7.68271 13.891523,12.35706 15.690413,21.77499 1.61578,5.43668 2.5676,-6.34212 5.25762,-7.48806 5.72623,-7.32239 15.47844,-13.45559 15.00431,-23.87083 0.57671,-4.81847 -4.16055,-13.42361 -7.4707,-13.16417 2.62435,7.7655 -3.69045,13.8029 -7.65966,19.62444 -4.09182,4.53882 -3.31414,11.0536 -4.49413,16.30658 -0.0781,-6.67294 -0.9491,-13.6805 -5.4871,-18.87781 -3.642981,-5.21151 -7.919431,-10.92653 -5.858684,-17.77364 l -0.161267,-0.29121 -0.32263,0.0165 z"
       style="baseline-shift:baseline;display:inline;overflow:visible;vector-effect:none;stroke-width:2.35874;enable-background:accumulate;stop-color:#000000"
       id="path171" />
    <path
       d="m 96.06436,95.66037 c -0.317092,5.14294 0.760645,11.92121 5.15376,16.11438 3.79528,5.32994 7.14153,11.36253 6.38468,18.23173 1.03968,6.48963 0.76197,-6.06341 1.80389,-8.06145 2.53706,-7.99401 11.59224,-13.17328 11.17135,-22.14515 -2.36822,-9.01233 6.47888,2.72384 6.61783,6.2017 2.13666,8.62703 -3.45696,16.43477 -9.50358,21.95646 -4.94969,3.40058 -7.99465,11.67972 -9.98851,14.78516 -1.37121,-8.53919 -8.277571,-14.11644 -13.868637,-20.01446 -5.136974,-5.81739 -6.996839,-14.7306 -2.497191,-21.46803 1.372579,-1.95428 2.737725,-4.21201 4.726408,-5.60034 z m 36.82448,46.744 c -3.24097,4.80137 -12.36621,9.56908 -14.9005,16.78816 -3.39333,6.64778 2.86852,18.3131 -5.41472,22.04233 -4.35163,2.69577 -11.43346,13.38365 -14.434422,2.68912 -5.438631,-9.69589 -18.092696,-11.77431 -28.042025,-9.1413 0.732201,-4.33401 13.594762,-4.84147 6.05973,-10.19507 -6.237968,-2.31446 -14.486425,0.63899 -19.304587,-5.43639 -1.919525,-2.70087 -10.660028,-11.17264 -2.252045,-8.48536 8.824611,0.79384 16.711778,5.4354 22.716368,11.7892 6.629834,5.59947 15.897399,5.64028 23.541781,9.22529 1.2661,-4.32419 0.23961,-10.2942 -2.580255,-14.50884 -3.077152,-5.26823 -6.349883,-8.74081 -11.459127,-12.08448 -7.830577,-4.92186 5.231809,-0.58237 7.248971,1.42277 6.085581,3.20757 10.711811,8.80964 14.719471,14.00744 1.28135,-0.23517 5.49266,-7.79208 7.63963,-9.29082 4.92004,-3.73921 9.97151,-8.09629 16.46173,-8.82205 z"
       style="baseline-shift:baseline;display:inline;overflow:visible;vector-effect:none;stroke-width:2.35874;enable-background:accumulate;stop-color:#000000"
       id="path170" />
    <path
       d="m 68.892414,90.56045 c -2.160373,7.56475 -3.655688,18.01605 3.86266,23.28839 4.473377,2.17107 13.209757,6.30787 15.596104,5.88985 -2.048784,-7.18305 -2.155884,-15.8427 -8.724844,-20.79489 -3.362321,-3.45512 -7.893307,-4.17838 -10.73392,-8.38335 z"
       style="baseline-shift:baseline;display:inline;overflow:visible;vector-effect:none;stroke-width:2.35874;enable-background:accumulate;stop-color:#000000"
       id="path166" />
    <path
       d="m 147.93873,90.32156 c -3.87913,6.00633 -12.41841,7.20365 -15.29604,14.16614 -1.94865,4.59085 -4.17678,13.24236 -3.82262,16.23827 5.7363,-4.61029 14.77984,-3.73226 18.65458,-10.77784 3.35598,-5.76791 2.0787,-13.58427 0.46408,-19.62657 z"
       style="baseline-shift:baseline;display:inline;overflow:visible;vector-effect:none;stroke-width:2.35874;enable-background:accumulate;stop-color:#000000"
       id="path165" />
    <path
       d="m 108.00723,77.2073 c -5.61864,7.89556 -11.363857,18.52348 -6.24817,28.15316 2.62414,2.66178 4.70013,11.58761 7.07703,10.88365 2.33501,-7.09661 9.08429,-13.0723 7.61558,-21.18406 -0.9351,-6.54136 -4.35154,-12.5601 -8.05077,-17.82107 l -0.39369,-0.0316 z"
       style="baseline-shift:baseline;display:inline;overflow:visible;vector-effect:none;stroke-width:2.35874;enable-background:accumulate;stop-color:#000000"
       id="path162" />
  </g>
</svg>
